<svg xmlns="http://www.w3.org/2000/svg" version="1.1" xmlns:xlink="http://www.w3.org/1999/xlink" xmlns:svgjs="http://svgjs.dev/svgjs" width="2000" height="676" viewBox="0 0 2000 676"><g transform="matrix(1,0,0,1,-1.2121212121212466,-1.0670525254906238)"><svg viewBox="0 0 396 134" data-background-color="#046380" preserveAspectRatio="xMidYMid meet" height="676" width="2000" xmlns="http://www.w3.org/2000/svg" xmlns:xlink="http://www.w3.org/1999/xlink"><g id="tight-bounds" transform="matrix(1,0,0,1,0.2400000000000091,0.21151632901737116)"><svg viewBox="0 0 395.52 133.5769673419653" height="133.5769673419653" width="395.52"><g><svg viewBox="0 0 635.0982544796547 214.48851839999998" height="133.5769673419653" width="395.52"><g transform="matrix(1,0,0,1,239.57825447965465,31.953020341771094)"><svg viewBox="0 0 395.52 150.5824777164578" height="150.5824777164578" width="395.52"><g id="textblocktransform"><svg viewBox="0 0 395.52 150.5824777164578" height="150.5824777164578" width="395.52" id="textblock"><g><svg viewBox="0 0 395.52 106.27821582733813" height="106.27821582733813" width="395.52"><g transform="matrix(1,0,0,1,0,0)"><svg width="395.52" viewBox="0.95 -32.15 138.99 37.35" height="106.27821582733813" data-palette-color="#ffffff"><path d="M23.55-32.1L23.85-31.65 23.55-27.75 17.75-28.05 15.05-28.05 14.8-10.1 15.05 0 9.85 0 10.15-9.65 9.9-28.05 7.2-28.05 1.3-27.75 0.95-28.2 1.35-32.1 23.55-32.1ZM39.4-27.9L34.25-27.85 34.1-17.75 39.15-17.65 44.45-17.8 44.8-17.35 44.4-13.45 38.7-13.6 34.05-13.55 34-10.1 34.25 0 29 0 29.35-9.65 29-32.1 46.95-32.1 47.3-31.65 46.9-27.6 39.4-27.9ZM63.64-32.1L74 0 68.69 0 67.94-3.6 66.55-8.05 59.74-8.2 53.59-8.05 52.09-3.85 51.3 0 46.14 0 57.59-32.1 63.64-32.1ZM60.09-12.15L65.25-12.25 60.64-27.05 60.3-27.05 55.05-12.25 60.09-12.15ZM93.94-12.85Q97.34-7.4 101.99-1.2L101.99-1.2 101.94-0.6Q99.54 0.2 96.99 0.45L96.99 0.45 96.39 0.05Q92.24-6.75 89.69-11.45L89.69-11.45 84.24-11.45 84.24-10.1 84.49 0 79.24 0 79.59-9.65 79.24-32.1 90.14-32.15Q94.99-32.15 97.64-29.73 100.29-27.3 100.29-22.8L100.29-22.8Q100.29-19.6 98.62-17.03 96.94-14.45 93.94-12.85L93.94-12.85ZM84.49-27.95L84.34-15.65 89.84-15.5Q94.89-17.05 94.89-22.4L94.89-22.4Q94.89-25.2 93.37-26.6 91.84-28 88.74-28.1L88.74-28.1 84.49-27.95ZM118.99-4.15L126.74-4.4 127.04-3.95 126.69 0 107.74 0 108.09-9.65 107.74-32.1 126.79-32.1 127.09-31.65 126.69-27.7 119.09-27.9 112.99-27.85 112.84-18.5 118.64-18.4 123.94-18.55 124.29-18.15 123.89-14.2 118.24-14.35 112.79-14.25 112.74-10.1 112.89-4.2 118.99-4.15ZM139.94-32.1L139.64-10.6 139.74-5.95Q139.74-2.05 137.71 0.48 135.69 3 130.69 5.2L130.69 5.2 128.89 2.35 128.89 1.8Q132.24 0.05 133.61-1.63 134.99-3.3 134.99-5.95L134.99-5.95 134.99-10.1 134.79-28.1 128.94-28.05 128.49-28.45 128.79-32.1 139.94-32.1Z" opacity="1" transform="matrix(1,0,0,1,0,0)" fill="#ffffff" class="wordmark-text-0" data-fill-palette-color="primary" id="text-0"></path></svg></g></svg></g><g transform="matrix(1,0,0,1,0,131.3679519069928)"><svg viewBox="0 0 232.209792 19.21452580946497" height="19.21452580946497" width="232.209792"><g transform="matrix(1,0,0,1,0,0)"><svg width="232.209792" viewBox="3.25 -39.04 592.68 49.05" height="19.21452580946497" data-palette-color="#ffffff"><path d="M10.25-13.99L10.25 0 3.25 0 3.25-35.01 10.25-35.01 10.25-21 24.24-21 24.24-35.01 31.25-35.01 31.25 0 24.24 0 24.24-13.99 10.25-13.99ZM44.89-33.25L44.89-33.25Q44.89-32.32 44.54-31.52 44.19-30.71 43.58-30.11 42.97-29.52 42.15-29.16 41.33-28.81 40.4-28.81L40.4-28.81Q39.48-28.81 38.66-29.16 37.84-29.52 37.24-30.11 36.64-30.71 36.29-31.52 35.94-32.32 35.94-33.25L35.94-33.25Q35.94-34.16 36.29-34.97 36.64-35.79 37.24-36.39 37.84-36.99 38.66-37.34 39.48-37.7 40.4-37.7L40.4-37.7Q41.33-37.7 42.15-37.34 42.97-36.99 43.58-36.39 44.19-35.79 44.54-34.97 44.89-34.16 44.89-33.25ZM43.75-26.15L43.75 0 37.03 0 37.03-26.15 43.75-26.15ZM67.43-13.31L67.43-13.31Q67.43-14.67 66.9-15.95 66.38-17.24 65.47-18.23 64.57-19.21 63.36-19.81 62.15-20.41 60.79-20.41L60.79-20.41Q59.42-20.41 58.21-19.95 57-19.48 56.11-18.58 55.22-17.68 54.71-16.35 54.19-15.01 54.19-13.31L54.19-13.31Q54.19-11.67 54.71-10.36 55.22-9.06 56.11-8.13 57-7.2 58.21-6.7 59.42-6.2 60.79-6.2L60.79-6.2Q62.15-6.2 63.36-6.8 64.57-7.4 65.47-8.39 66.38-9.38 66.9-10.66 67.43-11.94 67.43-13.31ZM74.14-26.1L74.14-3.3Q74.14-0.54 73.09 1.88 72.04 4.3 70.22 6.1 68.4 7.91 65.97 8.96 63.54 10.01 60.79 10.01L60.79 10.01 57.44 9.96 57.44 3.3 60.74 3.34Q62.3 3.34 63.4 2.94 64.5 2.54 65.25 1.84 66.01 1.15 66.46 0.24 66.91-0.66 67.18-1.66L67.18-1.66Q66.79-1.03 66.06-0.62 65.33-0.22 64.44 0.04 63.54 0.29 62.58 0.39 61.62 0.49 60.79 0.49L60.79 0.49Q58.03 0.49 55.6-0.46 53.17-1.42 51.35-3.19 49.53-4.96 48.48-7.52 47.43-10.08 47.43-13.31L47.43-13.31Q47.43-16.26 48.48-18.8 49.53-21.34 51.35-23.19 53.17-25.05 55.6-26.1 58.03-27.15 60.79-27.15L60.79-27.15Q62.06-27.15 63.3-26.83 64.55-26.51 65.72-25.95 66.89-25.39 67.95-24.63 69.01-23.88 69.94-23L69.94-23 72.53-26.1 74.14-26.1ZM85.88-14.94L85.88 0 79.22 0 79.22-36.55 85.88-36.55 85.88-25Q87.08-25.9 88.35-26.28 89.62-26.66 90.93-26.66L90.93-26.66Q93.35-26.66 95.48-25.74 97.6-24.83 99.17-23.23 100.75-21.63 101.66-19.49 102.58-17.36 102.58-14.94L102.58-14.94 102.58 0 95.87 0 95.87-14.94 95.92-14.94Q95.92-15.97 95.52-16.88 95.13-17.8 94.45-18.48 93.77-19.17 92.86-19.56 91.96-19.95 90.93-19.95L90.93-19.95Q89.89-19.95 88.96-19.56 88.03-19.17 87.35-18.48 86.66-17.8 86.27-16.88 85.88-15.97 85.88-14.94L85.88-14.94ZM107.73-21L128.24-21 128.24-14.36 107.73-14.36 107.73-21ZM159.07-26.1L159.07 9.96 152.36 9.96 152.36-1.76Q151.6-1.32 150.81-0.9 150.01-0.49 149.17-0.16 148.33 0.17 147.46 0.37 146.59 0.56 145.72 0.56L145.72 0.56Q142.96 0.56 140.53-0.45 138.1-1.46 136.28-3.3 134.46-5.13 133.41-7.68 132.36-10.23 132.36-13.31L132.36-13.31Q132.36-16.41 133.41-18.96 134.46-21.51 136.28-23.32 138.1-25.12 140.53-26.11 142.96-27.1 145.72-27.1L145.72-27.1Q146.98-27.1 148.22-26.78 149.45-26.46 150.62-25.92 151.79-25.37 152.86-24.61 153.92-23.85 154.87-23L154.87-23 157.46-26.1 159.07-26.1ZM152.36-13.31L152.36-13.31Q152.36-14.67 151.83-15.95 151.31-17.24 150.4-18.23 149.5-19.21 148.29-19.81 147.08-20.41 145.72-20.41L145.72-20.41Q144.35-20.41 143.14-19.91 141.93-19.41 141.04-18.48 140.15-17.55 139.64-16.25 139.12-14.94 139.12-13.31L139.12-13.31Q139.12-11.62 139.64-10.29 140.15-8.96 141.04-8.06 141.93-7.15 143.14-6.68 144.35-6.2 145.72-6.2L145.72-6.2Q147.08-6.2 148.29-6.8 149.5-7.4 150.4-8.39 151.31-9.38 151.83-10.66 152.36-11.94 152.36-13.31ZM185.56 0L183.36-3.05Q182.55-2.32 181.64-1.67 180.72-1.03 179.72-0.55 178.72-0.07 177.66 0.21 176.6 0.49 175.5 0.49L175.5 0.49Q173.08 0.49 170.96-0.37 168.83-1.22 167.23-2.8 165.63-4.37 164.72-6.63 163.8-8.89 163.8-11.69L163.8-11.69 163.8-26.15 170.44-26.15 170.44-11.69Q170.44-10.38 170.85-9.34 171.25-8.3 171.93-7.59 172.62-6.88 173.53-6.52 174.45-6.15 175.5-6.15L175.5-6.15Q176.52-6.15 177.44-6.63 178.35-7.1 179.04-7.89 179.72-8.67 180.11-9.66 180.5-10.64 180.5-11.69L180.5-11.69 180.5-26.15 187.17-26.15 187.17 0 185.56 0ZM217.56-26.1L217.56 0 215.95 0 213.36-3.59Q212.41-2.73 211.35-1.99 210.29-1.25 209.11-0.7 207.94-0.15 206.71 0.17 205.48 0.49 204.21 0.49L204.21 0.49Q201.45 0.49 199.02-0.44 196.59-1.37 194.77-3.14 192.95-4.91 191.9-7.47 190.85-10.03 190.85-13.31L190.85-13.31Q190.85-16.36 191.9-18.91 192.95-21.46 194.77-23.29 196.59-25.12 199.02-26.14 201.45-27.15 204.21-27.15L204.21-27.15Q205.48-27.15 206.72-26.83 207.97-26.51 209.14-25.95 210.31-25.39 211.37-24.63 212.43-23.88 213.36-23L213.36-23 215.95-26.1 217.56-26.1ZM210.85-13.31L210.85-13.31Q210.85-14.67 210.32-15.95 209.8-17.24 208.89-18.23 207.99-19.21 206.78-19.81 205.57-20.41 204.21-20.41L204.21-20.41Q202.84-20.41 201.63-19.95 200.42-19.48 199.53-18.58 198.64-17.68 198.13-16.35 197.61-15.01 197.61-13.31L197.61-13.31Q197.61-11.6 198.13-10.27 198.64-8.94 199.53-8.03 200.42-7.13 201.63-6.67 202.84-6.2 204.21-6.2L204.21-6.2Q205.57-6.2 206.78-6.8 207.99-7.4 208.89-8.39 209.8-9.38 210.32-10.66 210.85-11.94 210.85-13.31ZM229.35-36.55L229.35 0 222.64 0 222.64-36.55 229.35-36.55ZM242.29-33.25L242.29-33.25Q242.29-32.32 241.93-31.52 241.58-30.71 240.97-30.11 240.36-29.52 239.54-29.16 238.72-28.81 237.79-28.81L237.79-28.81Q236.87-28.81 236.05-29.16 235.23-29.52 234.63-30.11 234.04-30.71 233.68-31.52 233.33-32.32 233.33-33.25L233.33-33.25Q233.33-34.16 233.68-34.97 234.04-35.79 234.63-36.39 235.23-36.99 236.05-37.34 236.87-37.7 237.79-37.7L237.79-37.7Q238.72-37.7 239.54-37.34 240.36-36.99 240.97-36.39 241.58-35.79 241.93-34.97 242.29-34.16 242.29-33.25ZM241.14-26.15L241.14 0 234.43 0 234.43-26.15 241.14-26.15ZM264.38 0L259.33 0Q256.91 0 254.78-0.92 252.66-1.83 251.06-3.43 249.46-5.03 248.55-7.15 247.63-9.28 247.63-11.69L247.63-11.69 247.63-19.46 244.38-19.46 244.38-26.1 247.63-26.1 247.63-36.55 254.27-36.55 254.27-26.1 264.38-26.1 264.38-19.46 254.27-19.46 254.27-11.69Q254.27-10.64 254.66-9.73 255.05-8.81 255.74-8.13 256.42-7.45 257.35-7.04 258.28-6.64 259.33-6.64L259.33-6.64 264.38-6.64 264.38 0ZM277.83 10.01L274.41 9.96 274.41 3.25 278.12 3.3Q279.1 3.3 280 2.98 280.91 2.66 281.67 2.1 282.44 1.54 283.03 0.77 283.62 0 283.98-0.9L283.98-0.9Q282.88-0.44 281.75 0.02 280.61 0.49 279.46 0.49L279.46 0.49Q277.05 0.49 274.92-0.37 272.8-1.22 271.2-2.8 269.6-4.37 268.69-6.63 267.77-8.89 267.77-11.69L267.77-11.69 267.77-26.15 274.41-26.15 274.41-11.69Q274.41-10.3 274.81-9.27 275.22-8.23 275.9-7.53 276.58-6.84 277.5-6.49 278.41-6.15 279.46-6.15L279.46-6.15Q280.49-6.15 281.41-6.63 282.32-7.1 283-7.89 283.69-8.67 284.08-9.66 284.47-10.64 284.47-11.69L284.47-11.69 284.47-26.15 291.18-26.15 291.18-3.3Q291.16-0.54 290.11 1.88 289.06 4.3 287.24 6.1 285.42 7.91 283 8.96 280.59 10.01 277.83 10.01L277.83 10.01ZM318.72-19.51L318.72 0 312.05 0 312.05-19.51 308.81-19.51 308.81-26.15 312.05-26.15 312.05-27.39Q312.05-29.81 312.97-31.93 313.88-34.06 315.48-35.63 317.08-37.21 319.21-38.12 321.33-39.04 323.75-39.04L323.75-39.04 328.75-39.04 328.75-32.4 323.75-32.4Q322.67-32.4 321.76-32.02 320.84-31.64 320.17-30.97 319.5-30.3 319.11-29.38 318.72-28.47 318.72-27.39L318.72-27.39 318.72-26.15 326.9-26.15 326.9-19.51 318.72-19.51ZM338.86-33.25L338.86-33.25Q338.86-32.32 338.5-31.52 338.15-30.71 337.54-30.11 336.93-29.52 336.11-29.16 335.29-28.81 334.36-28.81L334.36-28.81Q333.44-28.81 332.62-29.16 331.8-29.52 331.2-30.11 330.6-30.71 330.25-31.52 329.9-32.32 329.9-33.25L329.9-33.25Q329.9-34.16 330.25-34.97 330.6-35.79 331.2-36.39 331.8-36.99 332.62-37.34 333.44-37.7 334.36-37.7L334.36-37.7Q335.29-37.7 336.11-37.34 336.93-36.99 337.54-36.39 338.15-35.79 338.5-34.97 338.86-34.16 338.86-33.25ZM337.71-26.15L337.71 0 331 0 331-26.15 337.71-26.15ZM349.5-36.55L349.5 0 342.78 0 342.78-36.55 349.5-36.55ZM387.83-16.6L387.83 0 381.19 0 381.19-16.6Q381.19-17.29 380.93-17.9 380.67-18.51 380.21-18.97 379.75-19.43 379.13-19.69 378.52-19.95 377.84-19.95L377.84-19.95Q377.16-19.95 376.56-19.69 375.96-19.43 375.51-18.97 375.06-18.51 374.8-17.9 374.54-17.29 374.54-16.6L374.54-16.6 374.54 0 367.88 0 367.88-16.6Q367.88-17.29 367.62-17.9 367.37-18.51 366.9-18.97 366.44-19.43 365.83-19.69 365.22-19.95 364.54-19.95L364.54-19.95Q363.85-19.95 363.25-19.69 362.66-19.43 362.2-18.97 361.75-18.51 361.5-17.9 361.24-17.29 361.24-16.6L361.24-16.6 361.24 0 354.57 0 354.57-26.15 356.19-26.15 357.99-24.15Q359.38-25.32 361.06-25.96 362.73-26.61 364.54-26.61L364.54-26.61Q366.37-26.61 368.11-25.93 369.86-25.24 371.18-23.56L371.18-23.56Q371.79-24.39 372.57-24.98 373.35-25.56 374.22-25.93 375.08-26.29 376.01-26.45 376.94-26.61 377.84-26.61L377.84-26.61Q379.92-26.61 381.73-25.83 383.55-25.05 384.91-23.69 386.26-22.34 387.04-20.51 387.83-18.68 387.83-16.6L387.83-16.6ZM407.04 0L407.04 0 391.8 0 391.8-6.64 407.04-6.64Q407.72-6.64 408.21-7.13 408.7-7.62 408.7-8.3L408.7-8.3Q408.7-9.01 408.21-9.23 407.72-9.45 407.04-9.45L407.04-9.45 400.1-9.45Q398.37-9.45 396.86-10.11 395.34-10.77 394.22-11.9 393.1-13.04 392.45-14.55 391.8-16.06 391.8-17.8L391.8-17.8Q391.8-19.53 392.45-21.04 393.1-22.56 394.22-23.68 395.34-24.8 396.86-25.45 398.37-26.1 400.1-26.1L400.1-26.1 413.6-26.1 413.6-19.46 400.1-19.46Q399.42-19.46 398.93-18.97 398.44-18.48 398.44-17.8L398.44-17.8Q398.44-17.09 398.93-16.59 399.42-16.09 400.1-16.09L400.1-16.09 407.04-16.09Q408.75-16.09 410.26-15.52 411.77-14.94 412.9-13.92 414.02-12.89 414.68-11.45 415.34-10.01 415.34-8.3L415.34-8.3Q415.34-6.57 414.68-5.07 414.02-3.56 412.9-2.43 411.77-1.29 410.26-0.65 408.75 0 407.04 0ZM441.33-19.51L441.33 0 434.67 0 434.67-19.51 431.42-19.51 431.42-26.15 434.67-26.15 434.67-27.39Q434.67-29.81 435.58-31.93 436.5-34.06 438.1-35.63 439.7-37.21 441.82-38.12 443.95-39.04 446.36-39.04L446.36-39.04 451.37-39.04 451.37-32.4 446.36-32.4Q445.29-32.4 444.37-32.02 443.46-31.64 442.79-30.97 442.12-30.3 441.72-29.38 441.33-28.47 441.33-27.39L441.33-27.39 441.33-26.15 449.51-26.15 449.51-19.51 441.33-19.51ZM477.44-13.31L477.44-13.31Q477.44-10.38 476.39-7.85 475.34-5.32 473.53-3.48 471.73-1.64 469.3-0.57 466.87 0.49 464.09 0.49L464.09 0.49Q461.33 0.49 458.9-0.57 456.47-1.64 454.65-3.48 452.83-5.32 451.78-7.85 450.73-10.38 450.73-13.31L450.73-13.31Q450.73-16.28 451.78-18.82 452.83-21.36 454.65-23.21 456.47-25.05 458.9-26.1 461.33-27.15 464.09-27.15L464.09-27.15Q466.87-27.15 469.3-26.16 471.73-25.17 473.53-23.35 475.34-21.53 476.39-18.98 477.44-16.43 477.44-13.31ZM470.73-13.31L470.73-13.31Q470.73-14.92 470.2-16.22 469.68-17.53 468.77-18.47 467.87-19.41 466.66-19.91 465.45-20.41 464.09-20.41L464.09-20.41Q462.72-20.41 461.51-19.91 460.3-19.41 459.41-18.47 458.52-17.53 458.01-16.22 457.49-14.92 457.49-13.31L457.49-13.31Q457.49-11.79 458.01-10.5 458.52-9.2 459.41-8.25 460.3-7.3 461.51-6.75 462.72-6.2 464.09-6.2L464.09-6.2Q465.45-6.2 466.66-6.71 467.87-7.23 468.77-8.15 469.68-9.08 470.2-10.4 470.73-11.72 470.73-13.31ZM487.79-14.4L487.79 0 481.12 0 481.12-26.15 482.74-26.15 484.93-23.05Q486.54-24.51 488.59-25.31 490.65-26.1 492.84-26.1L492.84-26.1 498.73-26.1 498.73-19.46 492.84-19.46Q491.79-19.46 490.87-19.07 489.94-18.68 489.25-17.99 488.57-17.31 488.18-16.38 487.79-15.45 487.79-14.4L487.79-14.4ZM525.53 10.01L522.11 9.96 522.11 3.25 525.82 3.3Q526.8 3.3 527.7 2.98 528.6 2.66 529.37 2.1 530.14 1.54 530.73 0.77 531.31 0 531.68-0.9L531.68-0.9Q530.58-0.44 529.45 0.02 528.31 0.49 527.16 0.49L527.16 0.49Q524.75 0.49 522.62-0.37 520.5-1.22 518.9-2.8 517.3-4.37 516.39-6.63 515.47-8.89 515.47-11.69L515.47-11.69 515.47-26.15 522.11-26.15 522.11-11.69Q522.11-10.3 522.51-9.27 522.92-8.23 523.6-7.53 524.28-6.84 525.2-6.49 526.11-6.15 527.16-6.15L527.16-6.15Q528.19-6.15 529.11-6.63 530.02-7.1 530.7-7.89 531.39-8.67 531.78-9.66 532.17-10.64 532.17-11.69L532.17-11.69 532.17-26.15 538.88-26.15 538.88-3.3Q538.86-0.54 537.81 1.88 536.76 4.3 534.94 6.1 533.12 7.91 530.7 8.96 528.29 10.01 525.53 10.01L525.53 10.01ZM569.23-13.31L569.23-13.31Q569.23-10.38 568.18-7.85 567.13-5.32 565.32-3.48 563.51-1.64 561.09-0.57 558.66 0.49 555.87 0.49L555.87 0.49Q553.11 0.49 550.68-0.57 548.26-1.64 546.44-3.48 544.62-5.32 543.57-7.85 542.52-10.38 542.52-13.31L542.52-13.31Q542.52-16.28 543.57-18.82 544.62-21.36 546.44-23.21 548.26-25.05 550.68-26.1 553.11-27.15 555.87-27.15L555.87-27.15Q558.66-27.15 561.09-26.16 563.51-25.17 565.32-23.35 567.13-21.53 568.18-18.98 569.23-16.43 569.23-13.31ZM562.51-13.31L562.51-13.31Q562.51-14.92 561.99-16.22 561.46-17.53 560.56-18.47 559.66-19.41 558.45-19.91 557.24-20.41 555.87-20.41L555.87-20.41Q554.51-20.41 553.3-19.91 552.09-19.41 551.2-18.47 550.31-17.53 549.79-16.22 549.28-14.92 549.28-13.31L549.28-13.31Q549.28-11.79 549.79-10.5 550.31-9.2 551.2-8.25 552.09-7.3 553.3-6.75 554.51-6.2 555.87-6.2L555.87-6.2Q557.24-6.2 558.45-6.71 559.66-7.23 560.56-8.15 561.46-9.08 561.99-10.4 562.51-11.72 562.51-13.31ZM594.32 0L592.12-3.05Q591.32-2.32 590.4-1.67 589.49-1.03 588.49-0.55 587.49-0.07 586.42 0.21 585.36 0.49 584.26 0.49L584.26 0.49Q581.85 0.49 579.72-0.37 577.6-1.22 576-2.8 574.4-4.37 573.48-6.63 572.57-8.89 572.57-11.69L572.57-11.69 572.57-26.15 579.21-26.15 579.21-11.69Q579.21-10.38 579.61-9.34 580.02-8.3 580.7-7.59 581.38-6.88 582.3-6.52 583.21-6.15 584.26-6.15L584.26-6.15Q585.29-6.15 586.2-6.63 587.12-7.1 587.8-7.89 588.49-8.67 588.88-9.66 589.27-10.64 589.27-11.69L589.27-11.69 589.27-26.15 595.93-26.15 595.93 0 594.32 0Z" opacity="1" transform="matrix(1,0,0,1,0,0)" fill="#ffffff" class="slogan-text-1" data-fill-palette-color="secondary" id="text-1"></path></svg></g></svg></g></svg></g></svg></g><g><svg viewBox="0 0 214.48851839999998 214.48851839999998" height="214.48851839999998" width="214.48851839999998"><g><svg></svg></g><g id="icon-0"><svg viewBox="0 0 214.48851839999998 214.48851839999998" height="214.48851839999998" width="214.48851839999998"><g><rect width="195.02567136" height="195.02567136" x="9.731423519999993" y="9.731423519999993" fill="#ffffff" data-fill-palette-color="accent"></rect><rect width="195.02567136" height="195.02567136" x="19.462847039999993" y="-5.329070518200751e-15" fill="#ffffff" opacity="0.5" data-fill-palette-color="accent"></rect></g><g transform="matrix(1,0,0,1,27.80406719999999,74.37730933156143)"><svg viewBox="0 0 158.880384 65.73389973687709" height="65.73389973687709" width="158.880384"><g><svg xmlns="http://www.w3.org/2000/svg" xmlns:xlink="http://www.w3.org/1999/xlink" version="1.1" x="0" y="0" viewBox="5.22 30.07 90.3 37.36000000000001" enable-background="new 0 0 100 100" xml:space="preserve" height="65.73389973687709" width="158.880384" class="icon-z$-0" data-fill-palette-color="background" id="z$-0"><path d="M88.89 30.83c-2.25 0-4.24 1.13-5.43 2.85-1.2-1.72-3.18-2.85-5.44-2.85-3.65 0-6.63 2.98-6.63 6.63 0 2.79 1.74 5.19 4.19 6.16v1.29l-6.11-2.75v10.57l6.11-2.64v2.18h5.5l-4.06 13.48c-0.16 0.76 0.35 1.51 1.11 1.65 0.09 0.02 0.19 0.03 0.27 0.03 0.66 0 1.26-0.47 1.38-1.14l3.67-11.46 3.66 11.46c0.15 0.67 0.74 1.14 1.4 1.14 0.09 0 0.17-0.01 0.27-0.03 0.76-0.14 1.25-0.89 1.11-1.65l-4.07-13.48h5.51v-8.65c2.45-0.97 4.19-3.37 4.19-6.16C95.52 33.81 92.54 30.83 88.89 30.83zM82.26 37.54c-0.04 2.3-1.93 4.16-4.24 4.16-2.34 0-4.26-1.9-4.26-4.24s1.92-4.26 4.26-4.26c2.31 0 4.19 1.86 4.24 4.16V37.54zM88.89 41.7c-2.31 0-4.2-1.84-4.26-4.14v-0.14c0.03-2.33 1.94-4.22 4.26-4.22 2.34 0 4.25 1.92 4.25 4.26S91.23 41.7 88.89 41.7z" fill="#046380" data-fill-palette-color="background"></path><path d="M49.83 30.07H8.1c-1.59 0-2.88 1.28-2.88 2.87v29.88c0 1.59 1.29 2.87 2.88 2.87h41.73c1.59 0 2.88-1.28 2.88-2.87V32.94C52.71 31.35 51.42 30.07 49.83 30.07zM49.31 62.3H8.62V33.46h40.69V62.3z" fill="#046380" data-fill-palette-color="background"></path><path d="M38.17 47.14c-0.36-4.51-3.97-8.11-8.47-8.46v-3.54h-1.47v3.54c-4.5 0.36-8.1 3.96-8.46 8.46h-3.54v1.48h3.54c0.36 4.5 3.96 8.1 8.46 8.46v3.54h1.47v-3.54c4.5-0.35 8.11-3.95 8.47-8.46h3.53v-1.48H38.17zM28.23 54.86c-3.29-0.34-5.9-2.96-6.24-6.24h6.24V54.86zM28.23 47.14h-6.24c0.34-3.28 2.95-5.9 6.24-6.24V47.14zM29.7 54.86v-6.24h6.25C35.61 51.9 32.98 54.52 29.7 54.86zM29.7 47.14V40.9c3.28 0.34 5.91 2.96 6.25 6.24H29.7z" fill="#046380" data-fill-palette-color="background"></path><rect x="65.71" y="38.45" transform="matrix(0.5101 -0.8601 0.8601 0.5101 -1.2522 76.7013)" width="1.999" height="2" fill="#046380" data-fill-palette-color="background"></rect><rect x="62.27" y="36.41" transform="matrix(0.5101 -0.8601 0.8601 0.5101 -1.1826 72.7433)" width="1.999" height="2" fill="#046380" data-fill-palette-color="background"></rect><polygon points="59.47,34.01 58.46,35.73 60.18,36.75 61.2,35.03 " fill="#046380" data-fill-palette-color="background"></polygon><rect x="55.38" y="32.34" transform="matrix(0.5101 -0.8601 0.8601 0.5101 -1.0574 64.8236)" width="1.999" height="2" fill="#046380" data-fill-palette-color="background"></rect><polygon points="56.73,60.09 55.01,61.1 56.03,62.82 57.75,61.81 " fill="#046380" data-fill-palette-color="background"></polygon><polygon points="60.18,58.05 58.46,59.07 59.47,60.79 61.2,59.77 " fill="#046380" data-fill-palette-color="background"></polygon><polygon points="63.62,56.02 61.9,57.03 62.92,58.75 64.64,57.74 " fill="#046380" data-fill-palette-color="background"></polygon><rect x="65.71" y="54.35" transform="matrix(0.8602 -0.51 0.51 0.8602 -18.9014 41.7651)" width="2" height="2" fill="#046380" data-fill-palette-color="background"></rect></svg></g></svg></g></svg></g></svg></g></svg></g><defs></defs></svg><rect width="395.52" height="133.5769673419653" fill="none" stroke="none" visibility="hidden"></rect></g></svg></g></svg>